<svg width="16" height="16" viewBox="0 0 16 16" fill="none" xmlns="http://www.w3.org/2000/svg">
<g clip-path="url('#clip0_5795_621')">
<path d="M11.3334 2.66659H14C14.1769 2.66659 14.3464 2.73682 14.4714 2.86185C14.5965 2.98687 14.6667 3.15644 14.6667 3.33325V13.9999C14.6667 14.1767 14.5965 14.3463 14.4714 14.4713C14.3464 14.5963 14.1769 14.6666 14 14.6666H2.00004C1.82323 14.6666 1.65366 14.5963 1.52864 14.4713C1.40361 14.3463 1.33337 14.1767 1.33337 13.9999V3.33325C1.33337 3.15644 1.40361 2.98687 1.52864 2.86185C1.65366 2.73682 1.82323 2.66659 2.00004 2.66659H4.66671V1.33325H6.00004V2.66659H10V1.33325H11.3334V2.66659ZM13.3334 7.99992H2.66671V13.3333H13.3334V7.99992ZM10 3.99992H6.00004V5.33325H4.66671V3.99992H2.66671V6.66659H13.3334V3.99992H11.3334V5.33325H10V3.99992ZM4.00004 9.33325H5.33337V10.6666H4.00004V9.33325ZM7.33337 9.33325H8.66671V10.6666H7.33337V9.33325ZM10.6667 9.33325H12V10.6666H10.6667V9.33325Z" fill="#979797"></path>
</g>
<defs>
<clipPath id="clip0_5795_621">
<rect width="16" height="16" fill="white"></rect>
</clipPath>
</defs>
</svg>
