<svg width="16" height="16" viewBox="0 0 16 16" fill="none" xmlns="http://www.w3.org/2000/svg">
<g clip-path="url('#clip0_5795_627')">
<path d="M2.66663 14.6667C2.66663 13.2523 3.22853 11.8957 4.22872 10.8955C5.22892 9.89532 6.58547 9.33342 7.99996 9.33342C9.41445 9.33342 10.771 9.89532 11.7712 10.8955C12.7714 11.8957 13.3333 13.2523 13.3333 14.6667H12C12 13.6059 11.5785 12.5885 10.8284 11.8383C10.0782 11.0882 9.06082 10.6667 7.99996 10.6667C6.93909 10.6667 5.92168 11.0882 5.17153 11.8383C4.42139 12.5885 3.99996 13.6059 3.99996 14.6667H2.66663ZM7.99996 8.66675C5.78996 8.66675 3.99996 6.87675 3.99996 4.66675C3.99996 2.45675 5.78996 0.666748 7.99996 0.666748C10.21 0.666748 12 2.45675 12 4.66675C12 6.87675 10.21 8.66675 7.99996 8.66675ZM7.99996 7.33342C9.47329 7.33342 10.6666 6.14008 10.6666 4.66675C10.6666 3.19341 9.47329 2.00008 7.99996 2.00008C6.52663 2.00008 5.33329 3.19341 5.33329 4.66675C5.33329 6.14008 6.52663 7.33342 7.99996 7.33342Z" fill="#979797"></path>
</g>
<defs>
<clipPath id="clip0_5795_627">
<rect width="16" height="16" fill="white"></rect>
</clipPath>
</defs>
</svg>
